<?xml version="1.0" encoding="UTF-8"?>
<!-- Created with Inkscape (http://www.inkscape.org/) -->
<svg width="376.14" height="127.85" version="1.1" viewBox="0 0 376.14 127.85" xmlns="http://www.w3.org/2000/svg">
 <defs>
  <clipPath id="clipPath12">
   <path d="m78.853 380.45c-6.8559 0.47265-14.869 4.8316-19.547 10.513-4.2492 5.1562-7.7567 12.808-6.3916 20.242 7.4814 0.23394 15.219-4.2348 19.712-9.9974 4.1918-5.3854 7.3823-12.99 6.2269-20.757zm2.5352 29.924c-11.549 0-16.428 5.4911-24.435 5.4911-8.255 0-14.539-5.4803-24.517-5.4803-9.811 0-20.238 5.9631-26.85 16.142-0.038228 0.0621-0.081862 0.12293-0.11995 0.18979-2.8217 4.4162-4.6156 10.016-5.3174 16.314-0.56815 5.0655-0.42014 10.595 0.47265 16.319 0.83548 5.3282 2.3203 10.838 4.4831 16.319 2.0148 5.1038 4.621 10.193 7.8437 15.097 0.26737 0.40581 0.53951 0.81581 0.81643 1.2264 5.2947 7.8776 12.246 16.224 21.198 16.304 8.3745 0.0764 10.748-5.3431 22.106-5.4052 11.363-0.0621 13.511 5.4619 21.886 5.3854 8.5794-0.0764 15.654-8.5692 20.92-16.295 0.51562-0.75434 1.0128-1.5003 1.4949-2.2308 3.576-5.4427 5.0691-8.3879 7.6524-14.074 0.21007-0.45834 0.4261-0.93576 0.65527-1.4323-7.5291-2.8454-12.872-8.3783-15.761-14.89-2.2726-5.1085-3.0216-10.829-2.1288-16.324 0.99305-6.0825 4.0105-11.892 9.2243-16.308 1.4658-1.246 3.1069-2.377 4.9307-3.3748-6.5886-8.2165-15.836-12.973-24.553-12.973z"/>
  </clipPath>
  <clipPath id="clipPath14">
   <path d="m78.853 380.45c-6.8559 0.47265-14.869 4.8316-19.547 10.513-4.2492 5.1562-7.7567 12.808-6.3916 20.242 7.4814 0.23394 15.219-4.2348 19.712-9.9974 4.1918-5.3854 7.3823-12.99 6.2269-20.757zm2.5352 29.924c-11.549 0-16.428 5.4911-24.435 5.4911-8.255 0-14.539-5.4803-24.517-5.4803-9.811 0-20.238 5.9631-26.85 16.142-0.038228 0.0621-0.081862 0.12293-0.11995 0.18979-2.8217 4.4162-4.6156 10.016-5.3174 16.314-0.56815 5.0655-0.42014 10.595 0.47265 16.319 0.83548 5.3282 2.3203 10.838 4.4831 16.319 2.0148 5.1038 4.621 10.193 7.8437 15.097 0.26737 0.40581 0.53951 0.81581 0.81643 1.2264 5.2947 7.8776 12.246 16.224 21.198 16.304 8.3745 0.0764 10.748-5.3431 22.106-5.4052 11.363-0.0621 13.511 5.4619 21.886 5.3854 8.5794-0.0764 15.654-8.5692 20.92-16.295 0.51562-0.75434 1.0128-1.5003 1.4949-2.2308 3.576-5.4427 5.0691-8.3879 7.6524-14.074 0.21007-0.45834 0.4261-0.93576 0.65527-1.4323-7.5291-2.8454-12.872-8.3783-15.761-14.89-2.2726-5.1085-3.0216-10.829-2.1288-16.324 0.99305-6.0825 4.0105-11.892 9.2243-16.308 1.4658-1.246 3.1069-2.377 4.9307-3.3748-6.5886-8.2165-15.836-12.973-24.553-12.973z"/>
  </clipPath>
  <clipPath id="clipPath16">
   <path d="m78.853 380.45c-6.8559 0.47265-14.869 4.8316-19.547 10.513-4.2492 5.1562-7.7567 12.808-6.3916 20.242 7.4814 0.23394 15.219-4.2348 19.712-9.9974 4.1918-5.3854 7.3823-12.99 6.2269-20.757zm2.5352 29.924c-11.549 0-16.428 5.4911-24.435 5.4911-8.255 0-14.539-5.4803-24.517-5.4803-9.811 0-20.238 5.9631-26.85 16.142-0.038228 0.0621-0.081862 0.12293-0.11995 0.18979-2.8217 4.4162-4.6156 10.016-5.3174 16.314-0.56815 5.0655-0.42014 10.595 0.47265 16.319 0.83548 5.3282 2.3203 10.838 4.4831 16.319 2.0148 5.1038 4.621 10.193 7.8437 15.097 0.26737 0.40581 0.53951 0.81581 0.81643 1.2264 5.2947 7.8776 12.246 16.224 21.198 16.304 8.3745 0.0764 10.748-5.3431 22.106-5.4052 11.363-0.0621 13.511 5.4619 21.886 5.3854 8.5794-0.0764 15.654-8.5692 20.92-16.295 0.51562-0.75434 1.0128-1.5003 1.4949-2.2308 3.576-5.4427 5.0691-8.3879 7.6524-14.074 0.21007-0.45834 0.4261-0.93576 0.65527-1.4323-7.5291-2.8454-12.872-8.3783-15.761-14.89-2.2726-5.1085-3.0216-10.829-2.1288-16.324 0.99305-6.0825 4.0105-11.892 9.2243-16.308 1.4658-1.246 3.1069-2.377 4.9307-3.3748-6.5886-8.2165-15.836-12.973-24.553-12.973z"/>
  </clipPath>
  <clipPath id="clipPath18">
   <path d="m78.853 380.45c-6.8559 0.47265-14.869 4.8316-19.547 10.513-4.2492 5.1562-7.7567 12.808-6.3916 20.242 7.4814 0.23394 15.219-4.2348 19.712-9.9974 4.1918-5.3854 7.3823-12.99 6.2269-20.757zm2.5352 29.924c-11.549 0-16.428 5.4911-24.435 5.4911-8.255 0-14.539-5.4803-24.517-5.4803-9.811 0-20.238 5.9631-26.85 16.142-0.038228 0.0621-0.081862 0.12293-0.11995 0.18979-2.8217 4.4162-4.6156 10.016-5.3174 16.314-0.56815 5.0655-0.42014 10.595 0.47265 16.319 0.83548 5.3282 2.3203 10.838 4.4831 16.319 2.0148 5.1038 4.621 10.193 7.8437 15.097 0.26737 0.40581 0.53951 0.81581 0.81643 1.2264 5.2947 7.8776 12.246 16.224 21.198 16.304 8.3745 0.0764 10.748-5.3431 22.106-5.4052 11.363-0.0621 13.511 5.4619 21.886 5.3854 8.5794-0.0764 15.654-8.5692 20.92-16.295 0.51562-0.75434 1.0128-1.5003 1.4949-2.2308 3.576-5.4427 5.0691-8.3879 7.6524-14.074 0.21007-0.45834 0.4261-0.93576 0.65527-1.4323-7.5291-2.8454-12.872-8.3783-15.761-14.89-2.2726-5.1085-3.0216-10.829-2.1288-16.324 0.99305-6.0825 4.0105-11.892 9.2243-16.308 1.4658-1.246 3.1069-2.377 4.9307-3.3748-6.5886-8.2165-15.836-12.973-24.553-12.973z"/>
  </clipPath>
  <clipPath id="clipPath20">
   <path d="m78.853 380.45c-6.8559 0.47265-14.869 4.8316-19.547 10.513-4.2492 5.1562-7.7567 12.808-6.3916 20.242 7.4814 0.23394 15.219-4.2348 19.712-9.9974 4.1918-5.3854 7.3823-12.99 6.2269-20.757zm2.5352 29.924c-11.549 0-16.428 5.4911-24.435 5.4911-8.255 0-14.539-5.4803-24.517-5.4803-9.811 0-20.238 5.9631-26.85 16.142-0.038228 0.0621-0.081862 0.12293-0.11995 0.18979-2.8217 4.4162-4.6156 10.016-5.3174 16.314-0.56815 5.0655-0.42014 10.595 0.47265 16.319 0.83548 5.3282 2.3203 10.838 4.4831 16.319 2.0148 5.1038 4.621 10.193 7.8437 15.097 0.26737 0.40581 0.53951 0.81581 0.81643 1.2264 5.2947 7.8776 12.246 16.224 21.198 16.304 8.3745 0.0764 10.748-5.3431 22.106-5.4052 11.363-0.0621 13.511 5.4619 21.886 5.3854 8.5794-0.0764 15.654-8.5692 20.92-16.295 0.51562-0.75434 1.0128-1.5003 1.4949-2.2308 3.576-5.4427 5.0691-8.3879 7.6524-14.074 0.21007-0.45834 0.4261-0.93576 0.65527-1.4323-7.5291-2.8454-12.872-8.3783-15.761-14.89-2.2726-5.1085-3.0216-10.829-2.1288-16.324 0.99305-6.0825 4.0105-11.892 9.2243-16.308 1.4658-1.246 3.1069-2.377 4.9307-3.3748-6.5886-8.2165-15.836-12.973-24.553-12.973z"/>
  </clipPath>
  <clipPath id="clipPath22">
   <path d="m78.853 380.45c-6.8559 0.47265-14.869 4.8316-19.547 10.513-4.2492 5.1562-7.7567 12.808-6.3916 20.242 7.4814 0.23394 15.219-4.2348 19.712-9.9974 4.1918-5.3854 7.3823-12.99 6.2269-20.757zm2.5352 29.924c-11.549 0-16.428 5.4911-24.435 5.4911-8.255 0-14.539-5.4803-24.517-5.4803-9.811 0-20.238 5.9631-26.85 16.142-0.038228 0.0621-0.081862 0.12293-0.11995 0.18979-2.8217 4.4162-4.6156 10.016-5.3174 16.314-0.56815 5.0655-0.42014 10.595 0.47265 16.319 0.83548 5.3282 2.3203 10.838 4.4831 16.319 2.0148 5.1038 4.621 10.193 7.8437 15.097 0.26737 0.40581 0.53951 0.81581 0.81643 1.2264 5.2947 7.8776 12.246 16.224 21.198 16.304 8.3745 0.0764 10.748-5.3431 22.106-5.4052 11.363-0.0621 13.511 5.4619 21.886 5.3854 8.5794-0.0764 15.654-8.5692 20.92-16.295 0.51562-0.75434 1.0128-1.5003 1.4949-2.2308 3.576-5.4427 5.0691-8.3879 7.6524-14.074 0.21007-0.45834 0.4261-0.93576 0.65527-1.4323-7.5291-2.8454-12.872-8.3783-15.761-14.89-2.2726-5.1085-3.0216-10.829-2.1288-16.324 0.99305-6.0825 4.0105-11.892 9.2243-16.308 1.4658-1.246 3.1069-2.377 4.9307-3.3748-6.5886-8.2165-15.836-12.973-24.553-12.973z"/>
  </clipPath>
 </defs>
 <g transform="translate(.18855 -380.45)" stroke-linecap="round">
  <path d="m164.41 436.67 3.8672 12.516 0.0703 0.14062c0.0351 0.28125 0.0703 0.49219 0.0703 0.59766 0 0.14063-0.0703 0.28125-0.21094 0.38672-0.14062 0.14062-0.28125 0.17578-0.42187 0.17578h-7.207c-0.14063 0-0.28125-0.0352-0.35157-0.10547-0.10547-0.0703-0.14062-0.17578-0.14062-0.3164v-0.35157c0-0.14062 0.0351-0.24609 0.0703-0.38672l3.375-12.727c0-0.14062 0.0703-0.28125 0.17578-0.42187 0.0703-0.10547 0.17578-0.17578 0.2461-0.17578 0.0703 0 0.14062 0.0703 0.21093 0.17578 0.0703 0.14062 0.17578 0.28125 0.2461 0.49218zm3.5156-9.9492c-0.10547-0.28125-0.21094-0.73829-0.35156-1.3008-0.42188-1.3711-0.87891-2.0742-1.3711-2.0742-0.49219 0-0.84375 0.45703-1.0898 1.3008-0.0703 0.21093-0.14062 0.35156-0.14062 0.42187l-11.461 37.16-0.0703 0.35156c-0.84375 2.7422-1.6875 4.3945-2.4961 4.957-0.42187 0.35156-1.1602 0.5625-2.1445 0.66797-0.98437 0.10547-1.4766 0.42188-1.4766 0.98438 0 0.3164 0.10547 0.5625 0.31641 0.70312 0.21093 0.17578 0.5625 0.24609 0.98437 0.24609 0.24609 0 0.91406-0.0351 1.9688-0.17578 1.0547-0.10547 2.0039-0.17578 2.7773-0.17578 1.1953 0 2.5312 0.0703 3.9375 0.21094 1.4062 0.14062 2.1797 0.21094 2.3203 0.21094 0.42187 0 0.73828-0.0703 0.94922-0.21094 0.17578-0.14063 0.28125-0.35156 0.28125-0.63281 0-0.42188-0.17579-0.77344-0.52735-0.98438s-1.125-0.42187-2.3555-0.59765c-0.77343-0.14063-1.2656-0.31641-1.5117-0.59766-0.24609-0.28125-0.35156-0.73828-0.35156-1.3711 0-0.42188 0.0703-1.0898 0.28125-2.0391 0.17578-0.91406 0.45703-2.0742 0.8086-3.4805l1.7226-6.4336c0-0.14062 0.10547-0.28125 0.28125-0.42187 0.17578-0.14063 0.35156-0.21094 0.49219-0.21094h8.9297c0.35156 0 0.63281 0.0703 0.77343 0.14062 0.14063 0.0703 0.2461 0.21094 0.31641 0.42188l2.8125 9.2109c0.21094 0.77343 0.35156 1.4414 0.45703 1.9688 0.10547 0.5625 0.17578 0.98437 0.17578 1.3008 0 0.66797-0.21093 1.125-0.63281 1.3711-0.42187 0.24609-1.1953 0.35156-2.3203 0.35156-0.42188 0-0.73828 0.10547-1.0195 0.31641s-0.38672 0.49219-0.38672 0.80859c0 0.35157 0.0703 0.5625 0.24609 0.70313 0.17578 0.14062 0.49219 0.17578 0.94922 0.17578 0.0703 0 0.91406-0.0352 2.5664-0.17578 1.6172-0.10547 3.2344-0.17578 4.8516-0.17578 1.0898 0 2.3203 0.0703 3.6562 0.21093s2.1094 0.21094 2.3906 0.21094c0.5625 0 0.98438-0.0703 1.1953-0.21094 0.21093-0.14062 0.3164-0.42187 0.3164-0.80859 0-0.31641-0.35156-0.59766-1.0547-0.80859-0.70313-0.21094-1.2305-0.49219-1.582-0.77344-0.73828-0.45703-1.3359-1.0898-1.8281-1.8984-0.4922-0.77344-1.0547-2.3203-1.7227-4.5703zm23.262 35.719v-13.395c0-2.3906 0.45703-4.1836 1.4062-5.3789 0.94922-1.1602 2.3906-1.7578 4.3594-1.7578 2.8476 0 5.1328 1.2305 6.8906 3.6914s2.6367 5.6953 2.6367 9.7734c0 4.1133-0.87891 7.4531-2.6367 9.9844-1.7578 2.5664-4.0078 3.832-6.8203 3.832-1.8984 0-3.3398-0.5625-4.3242-1.7227-1.0195-1.1602-1.5117-2.8477-1.5117-5.0273zm-0.0703-24.117c0-0.42188-0.0703-0.8086-0.21094-1.0898-0.14062-0.28125-0.28125-0.42187-0.49219-0.42187-0.28125 0-0.8789 0.45703-1.793 1.3359-0.91406 0.91406-1.8281 1.6523-2.7422 2.25-0.31641 0.21093-0.63282 0.42187-0.94922 0.59765-0.31641 0.17578-0.73828 0.38672-1.2305 0.63282-0.70313 0.35156-1.1953 0.63281-1.4062 0.84375-0.21094 0.21093-0.31641 0.45703-0.31641 0.73828s0.0352 0.49218 0.17578 0.59765c0.14063 0.14063 0.42188 0.21094 0.84375 0.28125 0.84375 0.14063 1.4414 0.45703 1.7578 1.0195 0.28125 0.5625 0.45703 1.4062 0.45703 2.4961v32.555c0 0.94921-0.10547 1.6523-0.31641 2.0742-0.21094 0.42188-0.63281 0.77344-1.2656 1.0195-0.31641 0.14062-0.77344 0.24609-1.3711 0.35156-0.84375 0.14062-1.2656 0.49219-1.2656 1.0898 0 0.42188 0.0703 0.70313 0.28125 0.87891 0.21094 0.21094 0.52734 0.28125 0.98437 0.28125 0.35157 0 1.1602-0.0703 2.4258-0.21094 1.2656-0.14062 2.3906-0.24609 3.3398-0.24609 0.84375 0 2.0039 0.10547 3.4805 0.24609 1.4766 0.14063 2.4961 0.21094 3.0938 0.21094 0.45703 0 0.80859-0.0703 1.0898-0.28125 0.28125-0.17578 0.42188-0.42188 0.42188-0.73828 0-0.70313-0.52735-1.0898-1.582-1.2305-0.84375-0.10547-1.5469-0.28125-2.0391-0.49219-0.52734-0.21094-0.8789-0.52734-1.0898-0.94922-0.21094-0.38672-0.28125-1.0547-0.28125-2.0039v-10.23l0.45703-0.21094c0.98437 0.5625 1.9688 0.98437 2.9883 1.2656s2.1094 0.38672 3.2695 0.38672c4.2891 0 7.7695-1.6875 10.512-5.0625s4.1133-7.7344 4.1133-13.078c0-4.7109-1.125-8.6133-3.375-11.637s-5.0273-4.5703-8.3672-4.5703c-1.582 0-3.0234 0.35156-4.2891 0.98437-1.2656 0.66797-2.5312 1.7227-3.7969 3.1289l-0.70313 0.84375c-0.14062 0.14062-0.24609 0.21094-0.35156 0.28125-0.10547 0.0703-0.17578 0.10547-0.21094 0.10547-0.10547 0-0.17578-0.0352-0.21094-0.10547-0.0351-0.0703-0.0351-0.21094-0.0351-0.42188zm31.488 24.117v-13.395c0-2.3906 0.45703-4.1836 1.4062-5.3789 0.94922-1.1602 2.3906-1.7578 4.3594-1.7578 2.8477 0 5.1328 1.2305 6.8906 3.6914s2.6367 5.6953 2.6367 9.7734c0 4.1133-0.87891 7.4531-2.6367 9.9844-1.7578 2.5664-4.0078 3.832-6.8203 3.832-1.8984 0-3.3398-0.5625-4.3242-1.7227-1.0195-1.1602-1.5117-2.8477-1.5117-5.0273zm-0.0703-24.117c0-0.42188-0.0703-0.8086-0.21094-1.0898-0.14063-0.28125-0.28125-0.42187-0.49219-0.42187-0.28125 0-0.8789 0.45703-1.793 1.3359-0.91406 0.91406-1.8281 1.6523-2.7422 2.25-0.31641 0.21093-0.63282 0.42187-0.94922 0.59765-0.31641 0.17578-0.73828 0.38672-1.2305 0.63282-0.70313 0.35156-1.1953 0.63281-1.4062 0.84375-0.21094 0.21093-0.31641 0.45703-0.31641 0.73828s0.0352 0.49218 0.17578 0.59765c0.14063 0.14063 0.42188 0.21094 0.84375 0.28125 0.84375 0.14063 1.4414 0.45703 1.7578 1.0195 0.28125 0.5625 0.45703 1.4062 0.45703 2.4961v32.555c0 0.94921-0.10547 1.6523-0.31641 2.0742-0.21094 0.42188-0.63281 0.77344-1.2656 1.0195-0.31641 0.14062-0.77344 0.24609-1.3711 0.35156-0.84375 0.14062-1.2656 0.49219-1.2656 1.0898 0 0.42188 0.0703 0.70313 0.28125 0.87891 0.21093 0.21094 0.52734 0.28125 0.98437 0.28125 0.35156 0 1.1602-0.0703 2.4258-0.21094 1.2656-0.14062 2.3906-0.24609 3.3398-0.24609 0.84375 0 2.0039 0.10547 3.4805 0.24609 1.4766 0.14063 2.4961 0.21094 3.0938 0.21094 0.45703 0 0.80859-0.0703 1.0898-0.28125 0.28125-0.17578 0.42187-0.42188 0.42187-0.73828 0-0.70313-0.52734-1.0898-1.582-1.2305-0.84375-0.10547-1.5469-0.28125-2.0391-0.49219-0.52734-0.21094-0.87891-0.52734-1.0898-0.94922-0.21094-0.38672-0.28125-1.0547-0.28125-2.0039v-10.23l0.45703-0.21094c0.98437 0.5625 1.9688 0.98437 2.9883 1.2656s2.1094 0.38672 3.2695 0.38672c4.2891 0 7.7695-1.6875 10.512-5.0625s4.1133-7.7344 4.1133-13.078c0-4.7109-1.125-8.6133-3.375-11.637s-5.0273-4.5703-8.3672-4.5703c-1.582 0-3.0234 0.35156-4.2891 0.98437-1.2656 0.66797-2.5312 1.7227-3.7969 3.1289l-0.70313 0.84375c-0.14062 0.14062-0.24609 0.21094-0.35156 0.28125-0.10547 0.0703-0.17578 0.10547-0.21094 0.10547-0.10547 0-0.17578-0.0352-0.21094-0.10547-0.0351-0.0703-0.0351-0.21094-0.0351-0.42188zm31.418-12.023c0-0.73828 0.0351-1.6523 0.10546-2.7422 0.0703-1.0898 0.14063-1.793 0.14063-2.1445 0-0.49219-0.0703-0.84375-0.21094-1.0547-0.14062-0.21093-0.38672-0.3164-0.66797-0.3164-0.0703 0-0.63281 0.3164-1.7578 0.94922-1.125 0.63281-2.3203 1.1953-3.5156 1.6172l-1.2656 0.45704h-0.0703c-1.2656 0.35156-1.8984 0.80859-1.8984 1.3711 0 0.21094 0.0703 0.35156 0.24609 0.49219 0.14063 0.14062 0.45704 0.28125 0.91407 0.42187 1.2656 0.5625 1.9336 1.3008 1.9336 2.25v37.371c0 0.91406-0.10547 1.5469-0.31641 1.8633-0.21093 0.35156-0.5625 0.59765-1.125 0.77343-0.35156 0.14063-0.80859 0.28125-1.3711 0.38672-0.84375 0.10547-1.2656 0.45703-1.2656 1.0547 0 0.35156 0.0703 0.59766 0.21093 0.73828 0.14063 0.14063 0.49219 0.21094 1.0547 0.21094 0.35156 0 1.1953-0.0352 2.5312-0.14063 1.3008-0.0703 2.3906-0.14062 3.3047-0.14062 0.84375 0 1.9688 0.0703 3.375 0.14062 1.4062 0.10547 2.3555 0.14063 2.8476 0.14063 0.52735 0 0.87891-0.0352 1.0898-0.17578 0.21094-0.10547 0.3164-0.31641 0.3164-0.63281 0-0.70313-0.52734-1.125-1.5117-1.1953-0.77344-0.0703-1.3359-0.24609-1.7227-0.45703-0.49219-0.21094-0.84375-0.5625-1.0547-1.0547-0.21094-0.45703-0.3164-1.125-0.3164-1.9688zm27.059 23.379c0.91406 0 1.5469-0.10547 1.8984-0.31641 0.35156-0.21094 0.52734-0.59766 0.52734-1.1953 0-3.1641-1.0898-5.8008-3.2695-7.9453-2.1797-2.1094-4.957-3.1992-8.332-3.1992-4.1484 0-7.4883 1.6172-10.09 4.7812-2.6016 3.1641-3.8672 7.3476-3.8672 12.516 0 5.2031 1.1953 9.3867 3.5859 12.48 2.3906 3.0938 5.5547 4.6406 9.5274 4.6406 3.0938 0 5.9062-0.91407 8.4375-2.7422 2.5312-1.8281 3.7969-3.5156 3.7969-5.0274 0-0.28125-0.0703-0.45703-0.14062-0.59765-0.10547-0.14063-0.2461-0.21094-0.42188-0.21094 0.21094 0-0.52734 0.70313-2.2852 2.1094-1.7578 1.4062-3.7617 2.0742-5.9414 2.0742-3.0586 0-5.5195-1.3008-7.418-3.9726-1.8984-2.6367-2.8125-6.1524-2.8125-10.512v-1.7227c0-0.49218 0.0352-0.80859 0.17578-0.94922 0.10547-0.14062 0.35157-0.21093 0.70313-0.21093zm-10.688-2.2148h-4.6758c-0.28125 0-0.49219-0.0351-0.63281-0.14062-0.14063-0.10547-0.21094-0.28125-0.21094-0.49219v-0.17578l0.21094-1.125c0.38671-2.0391 1.2305-3.6914 2.4961-4.957 1.2656-1.2656 2.707-1.8984 4.3242-1.8984 1.4414 0 2.6719 0.49219 3.7266 1.4766 1.0195 0.98438 1.5469 2.0742 1.5469 3.3398 0 1.4766-0.49219 2.5312-1.4766 3.0938-0.98437 0.59765-2.7422 0.8789-5.3086 0.8789zm37.98-17.191c0-1.3711 0.10547-2.25 0.35156-2.6016 0.24609-0.35156 0.73828-0.63281 1.5117-0.80859 0.35156-0.0703 0.80859-0.10547 1.4414-0.14062 1.0898-0.0703 1.6523-0.45704 1.6523-1.0898 0-0.28125-0.10547-0.49219-0.31641-0.70312-0.21093-0.17578-0.45703-0.28125-0.77343-0.28125 0 0-0.77344 0.10547-2.3203 0.28125-1.5469 0.21093-3.1641 0.28125-4.7812 0.28125-1.6875 0-3.3047-0.0703-4.8516-0.28125-1.582-0.17578-2.3555-0.28125-2.2852-0.28125-0.35156 0-0.63281 0.10547-0.80859 0.28125-0.21094 0.17578-0.28125 0.42187-0.28125 0.70312 0 0.63281 0.52734 1.0195 1.6523 1.0898 0.70313 0.0351 1.3008 0.10546 1.7227 0.21093 0.63281 0.21094 1.0547 0.52735 1.2656 0.87891 0.21093 0.38672 0.3164 1.1953 0.3164 2.4609v32.941c0 1.8633-0.14062 2.9883-0.42187 3.4102-0.28125 0.42187-0.91407 0.77344-1.8633 0.98437-0.28125 0.10547-0.70313 0.17579-1.2305 0.17579-1.0547 0.0703-1.582 0.42187-1.582 1.0547 0 0.38672 0.10546 0.66797 0.38671 0.87891 0.2461 0.21094 0.63282 0.28125 1.125 0.28125 0.0352 0 0.8086-0.0703 2.3203-0.21094 1.5117-0.14062 3.0234-0.21094 4.5352-0.21094 1.4766 0 2.9531 0.0703 4.4648 0.21094 1.5117 0.14063 2.2852 0.21094 2.3555 0.21094 0.45703 0 0.80859-0.0703 1.0898-0.24609s0.42187-0.42188 0.42187-0.77344c0-0.70313-0.5625-1.0898-1.6523-1.1953-0.66797-0.0352-1.1602-0.10547-1.5117-0.2461-0.84375-0.21094-1.3711-0.5625-1.582-1.0195-0.24609-0.42187-0.35156-1.5469-0.35156-3.3047zm14.582 0c0-1.3711 0.10547-2.25 0.35156-2.6016 0.2461-0.35156 0.73828-0.63281 1.5117-0.80859 0.35156-0.0703 0.80859-0.10547 1.4414-0.14062 1.0898-0.0703 1.6523-0.45704 1.6523-1.0898 0-0.28125-0.10547-0.49219-0.31641-0.70312-0.21093-0.17578-0.45703-0.28125-0.77343-0.28125 0 0-0.77344 0.10547-2.3203 0.28125-1.5469 0.21093-3.1641 0.28125-4.7812 0.28125-1.6875 0-3.3047-0.0703-4.8516-0.28125-1.582-0.17578-2.3555-0.28125-2.2852-0.28125-0.35157 0-0.63282 0.10547-0.8086 0.28125-0.21094 0.17578-0.28125 0.42187-0.28125 0.70312 0 0.63281 0.52735 1.0195 1.6524 1.0898 0.70312 0.0351 1.3008 0.10546 1.7226 0.21093 0.63281 0.21094 1.0547 0.52735 1.2656 0.87891 0.21093 0.38672 0.3164 1.1953 0.3164 2.4609v32.941c0 1.8633-0.14062 2.9883-0.42187 3.4102-0.28125 0.42187-0.91406 0.77344-1.8633 0.98437-0.28125 0.10547-0.70313 0.17579-1.2305 0.17579-1.0547 0.0703-1.582 0.42187-1.582 1.0547 0 0.38672 0.10547 0.66797 0.38672 0.87891 0.24609 0.21094 0.63281 0.28125 1.125 0.28125 0.0351 0 0.80859-0.0703 2.3203-0.21094 1.5117-0.14062 3.0234-0.21094 4.5352-0.21094 1.4766 0 2.9531 0.0703 4.4648 0.21094 1.5117 0.14063 2.2852 0.21094 2.3555 0.21094 0.45703 0 0.80859-0.0703 1.0898-0.24609s0.42188-0.42188 0.42188-0.77344c0-0.70313-0.5625-1.0898-1.6524-1.1953-0.66797-0.0352-1.1602-0.10547-1.5117-0.2461-0.84375-0.21094-1.3711-0.5625-1.582-1.0195-0.24609-0.42187-0.35156-1.5469-0.35156-3.3047z"/>
  <path d="m348.79 463.57c0 2.2939-0.36914 3.8496-1.0811 4.667-0.73828 0.84375-1.9248 1.2393-3.5596 1.2393-3.0322 0-5.5371-1.4766-7.541-4.4561-2.0039-2.9795-3.0059-6.8027-3.0059-11.443 0-5.0361 1.002-9.1494 3.0322-12.34 2.0039-3.1641 4.6143-4.7725 7.7783-4.7725 1.582 0 2.9268 0.42187 4.0342 1.2129 1.1074 0.79101 1.9775 1.9775 2.6104 3.5332 0.0791 0.23731 0.21093 0.55371 0.36914 0.92285 0.36914 1.1074 0.73828 1.6348 1.1338 1.6348 0.2373 0 0.42187-0.10547 0.52734-0.36914 0.10547-0.23731 0.18457-0.63281 0.18457-1.1602 0-1.6084-0.0527-2.8213-0.1582-3.6387-0.10547-0.81738-0.29004-1.3447-0.50098-1.582-0.47461-0.50098-1.4766-0.94922-3.0322-1.3711-1.5557-0.42187-3.1641-0.63281-4.8516-0.63281-4.8516 0-8.833 1.7666-11.997 5.2998-3.1641 3.5332-4.7461 7.9892-4.7461 13.395 0 5.0361 1.4238 9.1758 4.3242 12.445 2.874 3.2695 6.5391 4.8779 11.021 4.8779 2.9795 0 5.4844-0.52734 7.5146-1.582 2.0303-1.0547 3.0586-2.3994 3.0586-4.0342v-8.2002c0-0.97558 0.0791-1.6084 0.26367-1.8984s0.58008-0.50098 1.2129-0.65918c0.21094-0.0527 0.55372-0.0791 0.97559-0.10547 0.84375-0.0791 1.292-0.36914 1.292-0.84375 0-0.21094-0.0791-0.39551-0.2373-0.52735-0.15821-0.10546-0.34278-0.18457-0.58008-0.18457 0.0791 0-0.50098 0.0791-1.7139 0.21094-1.2393 0.1582-2.5576 0.21094-3.9551 0.21094-1.2392 0-2.4785-0.0527-3.7178-0.21094-1.2393-0.13183-1.8721-0.21094-1.8984-0.21094-0.3164 0-0.52734 0.0791-0.68554 0.21094-0.15821 0.13184-0.23731 0.31641-0.23731 0.55371 0 0.44824 0.42188 0.68555 1.292 0.73828 0.52735 0.0527 0.97559 0.10547 1.292 0.15821 0.68554 0.1582 1.1074 0.3955 1.292 0.65918 0.18457 0.26367 0.29004 0.89648 0.29004 1.8984zm9.2344-19.169c0 4.0078 2.3994 7.3564 7.1982 10.046l0.63282 0.39551c2.1094 1.2129 3.665 2.4522 4.667 3.7705 1.002 1.3184 1.5029 2.7949 1.5029 4.377 0 1.8457-0.58008 3.375-1.6875 4.6143-1.1338 1.2656-2.5049 1.8721-4.1396 1.8721-1.4502 0-2.7686-0.52735-3.9551-1.582-1.1865-1.0547-2.0303-2.4521-2.5312-4.2188-0.1582-0.4746-0.29004-1.1338-0.39551-1.9775-0.18457-1.1865-0.4746-1.793-0.89648-1.793-0.26367 0-0.47461 0.1582-0.60645 0.44824-0.1582 0.29004-0.21093 0.71191-0.21093 1.2393 0-0.0264 0 0.10547 0.0264 0.42187 0 0.31641 0.0264 0.65918 0.0264 0.97559 0 0.3164-0.0264 0.87012-0.0527 1.6084-0.0527 0.76464-0.0527 1.3711-0.0527 1.793 0 1.4766 0.68555 2.6104 2.1094 3.4277 1.3975 0.81738 3.3486 1.2129 5.8799 1.2129 3.0059 0 5.5107-1.0283 7.4619-3.1113 1.9512-2.0566 2.9531-4.6934 2.9531-7.8574 0-2.584-0.63281-4.7725-1.8984-6.5127-1.2656-1.7402-3.6387-3.5332-7.1191-5.3525-1.8984-1.002-3.1904-1.9512-3.9287-2.874s-1.081-2.0303-1.081-3.3486c0-1.6875 0.44824-3.0586 1.3975-4.0606 0.92285-1.002 2.1885-1.5029 3.7705-1.5029 1.1074 0 2.0039 0.34278 2.7422 0.97559 0.71192 0.63281 1.3975 1.793 2.083 3.4541 0.13184 0.36914 0.29004 0.81738 0.47461 1.3447 0.36914 1.0283 0.71191 1.5293 1.081 1.5293 0.21094 0 0.39551-0.0791 0.52735-0.29004 0.10547-0.21093 0.18457-0.4746 0.18457-0.84375 0-1.7402-0.0527-3.1113-0.13184-4.1133-0.0791-1.002-0.18457-1.6084-0.3164-1.793-0.31641-0.36914-1.0811-0.73828-2.3203-1.1074-1.2392-0.36914-2.5049-0.55371-3.8232-0.55371-2.9004 0-5.2207 0.87012-6.9609 2.584-1.7402 1.7139-2.6104 3.9814-2.6104 6.8027z"/>
  <rect x="-16.496" y="364.15" width="142.48" height="78.891" clip-path="url(#clipPath22)" fill="#00c800"/>
  <rect x="-16.496" y="426.72" width="142.48" height="32.632" clip-path="url(#clipPath20)" fill="#f3e800"/>
  <rect x="-16.496" y="443.04" width="142.48" height="32.627" clip-path="url(#clipPath18)" fill="#ff8902"/>
  <rect x="-16.496" y="459.35" width="142.48" height="32.632" clip-path="url(#clipPath16)" fill="#e2000f"/>
  <rect x="-16.496" y="475.67" width="142.48" height="32.609" clip-path="url(#clipPath14)" fill="#ad016f"/>
  <rect x="-16.496" y="492.00" width="142.48" height="32.609" clip-path="url(#clipPath12)" fill="#008ae5"/>
 </g>
</svg>
